<?xml version="1.0" encoding="utf-8"?>
<!-- Generator: Adobe Illustrator 16.0.0, SVG Export Plug-In . SVG Version: 6.00 Build 0)  -->
<!DOCTYPE svg PUBLIC "-//W3C//DTD SVG 1.1//EN" "http://www.w3.org/Graphics/SVG/1.1/DTD/svg11.dtd">
<svg version="1.1" id="Warstwa_1" xmlns="http://www.w3.org/2000/svg" xmlns:xlink="http://www.w3.org/1999/xlink" x="0px" y="0px"
	 width="453.543px" height="74.366px" viewBox="0 0 453.543 74.366" enable-background="new 0 0 453.543 74.366"
	 xml:space="preserve">
<g>
	<g>
		<path fill-rule="evenodd" clip-rule="evenodd" fill="#00628B" d="M74.365,37.184c0,20.533-16.647,37.182-37.182,37.182
			C16.646,74.366,0,57.716,0,37.184C0,16.647,16.646,0,37.183,0C57.717,0,74.365,16.647,74.365,37.184L74.365,37.184z"/>
		<path fill="#FFFFFF" d="M65.365,25.755l-0.319-0.762l1.755-0.282L65.365,25.755L65.365,25.755z M64.23,27.635l0.509-0.213
			l-0.12-0.287l2.79-2.147l-0.353-0.841l-3.49,0.488l-0.116-0.276l-0.507,0.212l0.298,0.711l1.265-0.211l0.422,1.002l-1.032,0.765
			L64.23,27.635L64.23,27.635z"/>
		<path fill="#FFFFFF" d="M62.736,24.153l0.479-0.274l-0.167-0.291l0.83-0.477c0.386-0.222,0.49-0.595,0.284-0.955l-0.198-0.344
			l1.396,0.083l0.229,0.4l0.483-0.277l-0.39-0.678l-2.067-0.033l1.541-0.885l-0.481-0.838l-0.483,0.276l0.168,0.291l-2.47,1.42
			l-0.169-0.291l-0.478,0.273l0.482,0.839l1.487-0.853l0.409,0.713c0.085,0.146,0.028,0.259-0.159,0.367l-1.208,0.695L62.736,24.153
			L62.736,24.153z"/>
		<path fill="#FFFFFF" d="M61.398,20.536l0.695-0.509c0.36-0.264,0.422-0.638,0.177-0.973l-0.482-0.66
			c-0.101-0.138-0.053-0.26,0.12-0.385l0.372-0.272c0.177-0.129,0.3-0.133,0.4,0.006l0.482,0.658l-0.407,0.299l0.366,0.501
			l0.857-0.627l-0.959-1.311c-0.245-0.335-0.626-0.391-0.987-0.129l-0.65,0.476c-0.36,0.263-0.423,0.644-0.178,0.98l0.481,0.655
			c0.099,0.138,0.056,0.256-0.122,0.386l-0.407,0.299c-0.175,0.127-0.306,0.135-0.405-0.002l-0.528-0.719l0.495-0.36l-0.381-0.523
			l-0.939,0.687l1.021,1.395C60.663,20.746,61.042,20.796,61.398,20.536L61.398,20.536z"/>
		<path fill="#FFFFFF" d="M61.51,16.248l0.4-0.386l-0.641-0.663l-1.678,1.621c-0.123,0.118-0.257,0.268-0.397,0.453l1.07-3.116
			l-0.694-0.717l-0.399,0.387l0.233,0.24l-2.05,1.98l-0.233-0.242l-0.396,0.383l0.642,0.663l1.675-1.618
			c0.122-0.118,0.259-0.271,0.404-0.459l-1.032,3.163l0.418,0.432l2.445-2.362L61.51,16.248L61.51,16.248z M62.045,14.393
			l-0.431-0.446l-0.867,0.264l0.346,0.357L62.045,14.393L62.045,14.393z"/>
		<path fill="#FFFFFF" d="M56.467,15.954l0.348-0.427l-0.24-0.197l1.46-3.204l-0.707-0.577l-2.853,2.066l-0.233-0.19l-0.348,0.427
			l0.598,0.488l1.019-0.779l0.842,0.688l-0.553,1.159L56.467,15.954L56.467,15.954z M56.588,13.761l-0.641-0.523l1.418-1.071
			L56.588,13.761L56.588,13.761z"/>
		<path fill="#FFFFFF" d="M55.554,10.856l0.291-0.474l-0.787-0.481l-1.217,1.991c-0.087,0.145-0.18,0.324-0.269,0.538l0.25-3.284
			l-0.85-0.521l-0.29,0.476l0.287,0.174l-1.486,2.432l-0.285-0.176l-0.289,0.471l0.788,0.48l1.215-1.986
			c0.089-0.146,0.182-0.329,0.276-0.548l-0.204,3.321l0.514,0.313l1.771-2.901L55.554,10.856L55.554,10.856z"/>
		<polygon fill="#FFFFFF" points="50.393,11.721 50.907,10.603 50.35,10.345 50.063,10.962 48.894,10.424 51.771,8.558 
			51.983,8.099 49.635,7.017 49.124,8.127 49.69,8.387 49.967,7.783 51.079,8.293 48.194,10.146 47.981,10.61 50.393,11.721 		"/>
		<path fill="#FFFFFF" d="M47.086,9.34c-0.069,0.204-0.166,0.287-0.327,0.232L46.047,9.33c-0.161-0.053-0.192-0.181-0.122-0.385
			l0.708-2.086c0.07-0.208,0.169-0.28,0.331-0.226l0.711,0.242c0.161,0.054,0.191,0.17,0.12,0.379L47.086,9.34L47.086,9.34z
			 M47.638,9.696l0.81-2.385c0.143-0.421-0.024-0.77-0.418-0.903l-1.062-0.361c-0.393-0.134-0.739,0.041-0.882,0.462l-0.81,2.385
			c-0.143,0.417,0.024,0.765,0.419,0.898l1.062,0.362C47.151,10.288,47.496,10.114,47.638,9.696L47.638,9.696z"/>
		<path fill="#FFFFFF" d="M44.43,6.773c-0.042,0.211-0.133,0.3-0.298,0.267l-0.797-0.162l0.226-1.112l0.796,0.161
			c0.167,0.035,0.215,0.147,0.173,0.361L44.43,6.773L44.43,6.773z M45.043,6.929l0.134-0.667c0.089-0.437-0.116-0.76-0.523-0.842
			l-1.93-0.391l-0.11,0.544l0.329,0.068l-0.567,2.792l-0.329-0.067l-0.109,0.54l1.312,0.266l0.109-0.54l-0.363-0.073l0.235-1.164
			l0.885,0.18C44.58,7.668,44.94,7.428,45.043,6.929L45.043,6.929z"/>
		<path fill="#FFFFFF" d="M38.039,6.768l-0.828-0.01l0.444-1.722L38.039,6.768L38.039,6.768z M39.307,8.559l0.007-0.551l-0.31-0.004
			l-0.853-3.417l-0.912-0.011l-0.946,3.392l-0.301-0.004l-0.006,0.551l0.771,0.01l0.312-1.243l1.087,0.014l0.289,1.252L39.307,8.559
			L39.307,8.559z"/>
		<path fill="#FFFFFF" d="M35.599,8.53l-0.061-0.548l-0.334,0.037L35.1,7.068c-0.049-0.444-0.348-0.688-0.762-0.643l-0.393,0.044
			l0.635-1.248l0.458-0.05l-0.062-0.552l-0.777,0.085l-0.856,1.881L33.149,4.82l-0.961,0.106l0.061,0.552l0.334-0.037l0.311,2.832
			L32.56,8.311l0.06,0.547l0.961-0.105l-0.187-1.704l0.816-0.09c0.17-0.019,0.251,0.079,0.275,0.293l0.151,1.385L35.599,8.53
			L35.599,8.53z"/>
		<polygon fill="#FFFFFF" points="32.119,8.969 32.011,8.427 31.676,8.494 31.118,5.7 31.453,5.634 31.344,5.088 30.062,5.344 
			30.171,5.889 30.499,5.824 31.058,8.617 30.729,8.684 30.836,9.224 32.119,8.969 		"/>
		<path fill="#FFFFFF" d="M29.368,6.061L29.205,5.53l-0.882,0.27l0.687,2.23c0.05,0.163,0.124,0.35,0.224,0.56l-2.294-2.363
			l-0.954,0.293l0.165,0.531l0.321-0.099l0.837,2.723l-0.321,0.099l0.163,0.526l0.881-0.271l-0.685-2.225
			c-0.051-0.164-0.124-0.355-0.227-0.57l2.353,2.353l0.574-0.178l-1-3.249L29.368,6.061L29.368,6.061z"/>
		<polygon fill="#FFFFFF" points="26.616,10.518 26.383,10.018 26.08,10.16 24.874,7.575 25.177,7.433 24.943,6.929 24.065,7.337 
			24.797,8.906 23.73,9.404 22.998,7.835 22.121,8.244 22.356,8.748 22.661,8.606 23.867,11.192 23.563,11.334 23.796,11.833 
			24.671,11.425 23.942,9.858 25.009,9.36 25.74,10.927 26.616,10.518 		"/>
		<path fill="#FFFFFF" d="M23.242,12.129l-0.646-1.073l-0.476,0.288l0.361,0.6l-0.836,0.505c-0.146,0.088-0.262,0.03-0.374-0.155
			l-1.139-1.885c-0.113-0.187-0.104-0.31,0.04-0.397l0.837-0.506l0.354,0.587l0.476-0.289l-0.642-1.062L19.726,9.63
			c-0.356,0.215-0.445,0.591-0.214,0.972l1.302,2.155c0.227,0.378,0.602,0.474,0.957,0.258L23.242,12.129L23.242,12.129z"/>
		<polygon fill="#FFFFFF" points="20.683,13.743 19.907,12.751 19.466,13.097 19.9,13.654 18.941,14.403 18.186,13.437 
			19.18,12.658 18.853,12.24 17.857,13.017 17.188,12.159 18.115,11.434 18.528,11.962 18.961,11.622 18.207,10.655 16.083,12.315 
			16.426,12.754 16.69,12.548 18.444,14.792 18.179,14.999 18.519,15.433 20.683,13.743 		"/>
		<polygon fill="#FFFFFF" points="16.181,13.688 15.403,12.894 13.218,15.039 13.996,15.833 14.415,15.421 14.025,15.025 
			14.472,14.587 16.47,16.62 16.208,16.876 16.594,17.269 17.573,16.307 17.188,15.913 16.923,16.174 14.927,14.142 15.373,13.702 
			15.763,14.098 16.181,13.688 		"/>
		<polygon fill="#FFFFFF" points="15.713,18.179 15.292,17.823 15.072,18.082 12.902,16.236 13.122,15.976 12.699,15.617 
			11.853,16.613 12.275,16.973 12.493,16.717 14.664,18.562 14.446,18.818 14.865,19.176 15.713,18.179 		"/>
		<polygon fill="#FFFFFF" points="14.466,19.673 13.368,18.904 13.041,19.372 13.688,19.825 13.084,20.687 10.751,19.052 
			10.96,18.753 10.506,18.434 9.741,19.525 10.197,19.844 10.389,19.569 12.722,21.204 12.529,21.479 12.981,21.795 14.466,19.673 
					"/>
		<path fill="#FFFFFF" d="M11.566,22.444c0.189,0.101,0.257,0.21,0.178,0.361l-0.353,0.663c-0.079,0.151-0.21,0.161-0.401,0.06
			l-1.944-1.034c-0.194-0.103-0.25-0.212-0.169-0.362l0.353-0.665c0.079-0.15,0.199-0.16,0.393-0.057L11.566,22.444L11.566,22.444z
			 M12.006,21.957l-2.223-1.182c-0.394-0.209-0.765-0.1-0.959,0.268l-0.528,0.991c-0.194,0.367-0.078,0.736,0.316,0.945l2.223,1.183
			c0.388,0.207,0.759,0.097,0.955-0.27l0.528-0.991C12.512,22.533,12.396,22.164,12.006,21.957L12.006,21.957z"/>
		<path fill="#FFFFFF" d="M8.517,24.705c0.2,0.078,0.272,0.181,0.211,0.34l-0.292,0.757l-1.059-0.411l0.293-0.756
			c0.062-0.159,0.18-0.189,0.385-0.109L8.517,24.705L8.517,24.705z M8.774,24.127l-0.635-0.246
			c-0.416-0.161-0.769-0.013-0.919,0.375l-0.712,1.836l0.519,0.201l0.121-0.313l2.655,1.03l-0.121,0.314l0.514,0.199l0.483-1.248
			l-0.513-0.2l-0.134,0.347l-1.108-0.43l0.327-0.841C9.424,24.708,9.249,24.312,8.774,24.127L8.774,24.127z"/>
		<polygon fill="#FFFFFF" points="66.238,33.848 65.684,33.879 65.725,34.61 67.39,35.287 65.815,36.156 65.861,36.945 
			66.417,36.914 66.396,36.579 67.99,35.593 69.188,35.524 69.21,35.884 69.759,35.852 69.683,34.511 69.131,34.543 69.152,34.893 
			67.921,34.964 66.258,34.183 66.238,33.848 		"/>
		<path fill="#FFFFFF" d="M69.801,37.63l-2.268-0.095l-0.053,1.257l0.557,0.022l0.027-0.651l1.161,0.05l-0.04,0.975
			c-0.007,0.171-0.12,0.236-0.335,0.229l-2.201-0.092c-0.22-0.011-0.316-0.084-0.309-0.255l0.04-0.978l0.649,0.028l0.024-0.564
			l-1.205-0.051l-0.073,1.729c-0.017,0.415,0.248,0.696,0.693,0.714l2.516,0.106c0.441,0.018,0.727-0.241,0.745-0.655L69.801,37.63
			L69.801,37.63z"/>
		<path fill="#FFFFFF" d="M68.62,41.603c0.212,0.036,0.311,0.116,0.284,0.285l-0.12,0.742c-0.026,0.167-0.146,0.22-0.358,0.186
			l-2.177-0.35c-0.217-0.034-0.304-0.119-0.277-0.287l0.12-0.742c0.026-0.169,0.135-0.217,0.353-0.182L68.62,41.603L68.62,41.603z
			 M68.879,41.001l-2.487-0.398c-0.44-0.072-0.755,0.151-0.82,0.562l-0.179,1.107c-0.066,0.413,0.163,0.722,0.605,0.794l2.485,0.396
			c0.435,0.071,0.75-0.152,0.816-0.562l0.178-1.109C69.542,41.38,69.314,41.071,68.879,41.001L68.879,41.001z"/>
		<polygon fill="#FFFFFF" points="69.007,44.395 67.711,44.051 67.564,44.604 68.329,44.807 68.059,45.825 65.306,45.095 
			65.399,44.742 64.862,44.599 64.52,45.887 65.058,46.03 65.144,45.705 67.898,46.435 67.812,46.759 68.344,46.9 69.007,44.395 		
			"/>
		<path fill="#FFFFFF" d="M66.933,48.236c0.202,0.076,0.281,0.175,0.222,0.336l-0.268,0.702c-0.061,0.159-0.188,0.185-0.39,0.109
			l-2.061-0.782c-0.205-0.076-0.273-0.179-0.213-0.338l0.267-0.703c0.061-0.158,0.178-0.185,0.382-0.106L66.933,48.236
			L66.933,48.236z M67.308,47.696l-2.355-0.893c-0.416-0.158-0.77-0.002-0.917,0.386l-0.398,1.05
			c-0.146,0.391,0.013,0.74,0.431,0.899l2.354,0.893c0.412,0.156,0.765,0.001,0.913-0.388l0.398-1.05
			C67.881,48.205,67.72,47.854,67.308,47.696L67.308,47.696z"/>
		<path fill="#FFFFFF" d="M63.642,49.636l-0.489-0.267l-0.443,0.808l2.045,1.124c0.149,0.081,0.332,0.164,0.55,0.243l-3.292-0.098
			l-0.481,0.873l0.488,0.268l0.161-0.293l2.498,1.371l-0.163,0.295L65,54.224l0.443-0.807l-2.04-1.121
			c-0.149-0.084-0.335-0.17-0.56-0.251l3.329,0.051l0.288-0.527l-2.98-1.637L63.642,49.636L63.642,49.636z"/>
		<polygon fill="#FFFFFF" points="64.403,55.202 63.961,54.873 63.762,55.142 61.471,53.439 61.67,53.168 61.224,52.839 
			60.648,53.615 62.037,54.648 61.335,55.592 59.945,54.561 59.369,55.335 59.816,55.667 60.016,55.399 62.305,57.1 62.106,57.371 
			62.549,57.698 63.125,56.922 61.738,55.891 62.44,54.947 63.828,55.977 64.403,55.202 		"/>
		<path fill="#FFFFFF" d="M61.833,58.545l-0.927-0.841l-0.373,0.411l0.518,0.471l-0.656,0.725c-0.115,0.124-0.244,0.103-0.402-0.042
			l-1.631-1.48c-0.164-0.148-0.19-0.269-0.076-0.394l0.657-0.722l0.506,0.46l0.375-0.411l-0.919-0.836l-1.157,1.273
			c-0.278,0.306-0.256,0.691,0.073,0.991l1.864,1.694c0.326,0.296,0.713,0.282,0.991-0.026L61.833,58.545L61.833,58.545z"/>
		<polygon fill="#FFFFFF" points="59.41,61.071 58.593,60.116 58.166,60.479 58.625,61.016 57.698,61.807 56.901,60.875 
			57.862,60.055 57.516,59.651 56.557,60.471 55.848,59.643 56.743,58.877 57.179,59.386 57.598,59.028 56.8,58.097 54.751,59.849 
			55.112,60.272 55.368,60.053 57.219,62.219 56.964,62.437 57.322,62.856 59.41,61.071 		"/>
		<polygon fill="#FFFFFF" points="54.979,61.077 54.36,60.153 51.815,61.854 52.434,62.778 52.921,62.451 52.612,61.99 
			53.133,61.643 54.715,64.01 54.411,64.213 54.718,64.672 55.859,63.91 55.553,63.451 55.245,63.656 53.663,61.289 54.183,60.94 
			54.492,61.401 54.979,61.077 		"/>
		<polygon fill="#FFFFFF" points="50.364,64.019 49.868,62.898 47.481,63.954 47.705,64.463 48.012,64.328 49.164,66.932 
			48.857,67.069 49.081,67.572 50.312,67.027 50.09,66.524 49.742,66.677 49.256,65.577 50.451,65.046 50.228,64.539 49.03,65.068 
			48.588,64.071 49.548,63.648 49.819,64.261 50.364,64.019 		"/>
		<polygon fill="#FFFFFF" points="42.373,65.959 42.303,65.409 41.576,65.502 41.017,67.209 40.041,65.698 39.256,65.798 
			39.326,66.349 39.659,66.307 40.751,67.828 40.904,69.019 40.547,69.064 40.617,69.612 41.948,69.441 41.879,68.895 41.531,68.94 
			41.375,67.717 42.039,66.001 42.373,65.959 		"/>
		<polygon fill="#FFFFFF" points="38.908,66.92 38.899,65.808 35.837,65.833 35.848,66.944 36.433,66.94 36.429,66.387 
			37.055,66.38 37.078,69.229 36.713,69.232 36.718,69.783 38.089,69.772 38.086,69.22 37.714,69.223 37.691,66.375 38.318,66.369 
			38.323,66.925 38.908,66.92 		"/>
		<polygon fill="#FFFFFF" points="35.03,69.724 35.078,69.175 34.738,69.146 34.987,66.307 35.327,66.337 35.375,65.783 
			34.072,65.668 34.024,66.223 34.359,66.251 34.109,69.089 33.775,69.061 33.727,69.609 35.03,69.724 		"/>
		<path fill="#FFFFFF" d="M32.792,68.804l0.159-0.847c0.082-0.438-0.13-0.752-0.539-0.83l-0.803-0.148
			c-0.168-0.031-0.216-0.152-0.177-0.365l0.084-0.45c0.041-0.218,0.128-0.303,0.296-0.271l0.803,0.15l-0.094,0.495l0.611,0.115
			l0.195-1.043l-1.596-0.299c-0.409-0.077-0.726,0.145-0.807,0.583l-0.149,0.792c-0.082,0.438,0.134,0.758,0.542,0.835l0.798,0.148
			c0.168,0.03,0.217,0.148,0.176,0.364l-0.092,0.498c-0.04,0.212-0.129,0.307-0.296,0.276l-0.876-0.165l0.111-0.601l-0.635-0.119
			l-0.214,1.142l1.701,0.319C32.399,69.46,32.711,69.239,32.792,68.804L32.792,68.804z"/>
		<path fill="#FFFFFF" d="M29.623,68.949l0.156-0.528l-0.326-0.097l0.214-0.73c0.123-0.412,0.052-0.649-0.312-0.867
			c0.36,0.057,0.572-0.061,0.666-0.371l0.179-0.608c0.127-0.428-0.05-0.767-0.45-0.885l-1.887-0.56l-0.158,0.534l0.322,0.094
			l-0.809,2.733l-0.321-0.097l-0.156,0.529l0.927,0.273l0.494-1.667l0.792,0.234c0.168,0.05,0.194,0.173,0.132,0.379l-0.399,1.355
			L29.623,68.949L29.623,68.949z M29.409,66.19c-0.062,0.206-0.159,0.286-0.322,0.238l-0.778-0.229l0.321-1.088l0.779,0.228
			c0.165,0.05,0.203,0.166,0.141,0.377L29.409,66.19L29.409,66.19z"/>
		<polygon fill="#FFFFFF" points="25.804,67.779 26.3,66.624 25.785,66.403 25.505,67.05 24.387,66.571 24.872,65.442 26.032,65.94 
			26.242,65.453 25.081,64.954 25.512,63.952 26.593,64.417 26.329,65.034 26.835,65.251 27.319,64.125 24.842,63.06 24.623,63.572 
			24.932,63.703 23.807,66.321 23.498,66.188 23.28,66.696 25.804,67.779 		"/>
		<polygon fill="#FFFFFF" points="24.125,63.358 24.401,62.875 23.666,62.455 21.415,64.819 22.304,61.676 21.572,61.259 
			21.296,61.743 21.588,61.908 20.689,65.31 21.354,65.691 23.833,63.193 24.125,63.358 		"/>
		<polygon fill="#FFFFFF" points="18.881,64.181 19.202,63.732 18.926,63.535 20.583,61.219 20.861,61.418 21.185,60.964 
			20.122,60.204 19.797,60.656 20.071,60.852 18.412,63.167 18.138,62.971 17.817,63.418 18.881,64.181 		"/>
		<path fill="#FFFFFF" d="M19.324,60.323l0.366-0.419l-0.696-0.604l-1.53,1.761c-0.111,0.13-0.232,0.29-0.355,0.486l0.792-3.198
			l-0.753-0.653l-0.365,0.42l0.253,0.22l-1.867,2.151l-0.255-0.22l-0.36,0.416l0.695,0.604l1.526-1.759
			c0.112-0.127,0.235-0.292,0.363-0.494l-0.752,3.241l0.455,0.395l2.229-2.566L19.324,60.323L19.324,60.323z"/>
		<path fill="#FFFFFF" d="M16.383,57.735l0.417-0.368l-0.612-0.693l-2.312,2.034c-0.161,0.143-0.29,0.163-0.403,0.035l-0.523-0.595
			c-0.112-0.128-0.073-0.25,0.089-0.394l2.311-2.033l-0.643-0.729l-0.417,0.367l0.225,0.255l-1.919,1.692
			c-0.387,0.34-0.419,0.797-0.102,1.156l0.581,0.659c0.321,0.365,0.776,0.391,1.165,0.049l1.919-1.689L16.383,57.735L16.383,57.735z
			"/>
		<path fill="#FFFFFF" d="M12.832,53.354l0.482-0.279l-0.463-0.798l-2.018,1.171c-0.147,0.085-0.314,0.199-0.495,0.346l1.785-2.77
			l-0.501-0.861l-0.479,0.278l0.168,0.29l-2.463,1.432l-0.169-0.29l-0.476,0.276l0.463,0.798l2.013-1.169
			c0.148-0.087,0.317-0.203,0.503-0.353l-1.76,2.826l0.303,0.519l2.939-1.707L12.832,53.354L12.832,53.354z"/>
		<path fill="#FFFFFF" d="M8.963,49.628l-0.325-0.761l1.752-0.289L8.963,49.628L8.963,49.628z M7.838,51.514l0.507-0.216
			l-0.122-0.286l2.78-2.16l-0.357-0.84L7.16,48.519l-0.118-0.275l-0.507,0.215l0.303,0.709l1.264-0.217l0.428,1L7.5,50.72
			L7.838,51.514L7.838,51.514z"/>
		<path fill="#FFFFFF" d="M9.635,46.964l0.534-0.155l-0.259-0.886l-2.24,0.653c-0.164,0.049-0.352,0.118-0.562,0.216l2.398-2.26
			l-0.281-0.956l-0.534,0.155l0.095,0.323l-2.735,0.797L5.957,44.53l-0.53,0.155l0.259,0.884l2.234-0.652
			c0.164-0.048,0.356-0.119,0.573-0.22l-2.385,2.319l0.168,0.578l3.264-0.952L9.635,46.964L9.635,46.964z"/>
		<polygon fill="#FFFFFF" points="5.197,43.643 6.414,43.45 6.318,42.842 5.645,42.95 5.444,41.677 8.593,43.035 9.093,42.956 
			8.689,40.401 7.483,40.593 7.579,41.207 8.236,41.103 8.428,42.309 5.286,40.94 4.782,41.02 5.197,43.643 		"/>
		<path fill="#FFFFFF" d="M5.508,39.376c-0.216,0.012-0.329-0.049-0.336-0.22l-0.038-0.751c-0.008-0.168,0.1-0.244,0.314-0.255
			l2.2-0.106c0.219-0.012,0.323,0.053,0.332,0.222l0.037,0.751c0.01,0.171-0.087,0.24-0.308,0.251L5.508,39.376L5.508,39.376z
			 M5.378,40.021l2.516-0.124c0.445-0.023,0.707-0.306,0.687-0.722l-0.056-1.12c-0.02-0.417-0.308-0.672-0.753-0.651l-2.515,0.125
			c-0.441,0.021-0.704,0.305-0.682,0.72l0.054,1.12C4.649,39.785,4.939,40.042,5.378,40.021L5.378,40.021z"/>
		<path fill="#FFFFFF" d="M7.154,36.051c-0.214-0.016-0.314-0.093-0.301-0.263l0.062-0.81l1.132,0.088l-0.062,0.809
			c-0.014,0.17-0.12,0.233-0.339,0.216L7.154,36.051L7.154,36.051z M7.076,36.678l0.677,0.053c0.445,0.034,0.74-0.21,0.772-0.623
			l0.152-1.964l-0.554-0.043l-0.026,0.334l-2.841-0.217l0.025-0.336l-0.548-0.043l-0.103,1.334l0.55,0.042l0.028-0.37l1.185,0.091
			l-0.07,0.899C6.286,36.312,6.566,36.639,7.076,36.678L7.076,36.678z"/>
		<path fill="#FFFFFF" d="M47.358,67.244c0.068,0.206,0.041,0.33-0.121,0.384l-0.714,0.235c-0.163,0.054-0.263-0.028-0.331-0.233
			l-0.691-2.091c-0.07-0.209-0.035-0.326,0.126-0.381l0.714-0.235c0.161-0.052,0.254,0.021,0.324,0.229L47.358,67.244L47.358,67.244
			z M48.012,67.197l-0.79-2.392c-0.141-0.423-0.484-0.599-0.879-0.469l-1.066,0.354c-0.394,0.129-0.564,0.476-0.424,0.9l0.79,2.39
			c0.138,0.418,0.48,0.597,0.877,0.464l1.064-0.351C47.981,67.961,48.151,67.614,48.012,67.197L48.012,67.197z"/>
		<path fill-rule="evenodd" clip-rule="evenodd" fill="#FFFFFF" d="M58.555,40.549c0.176-1.126,0.271-2.258,0.271-3.366
			c0-0.551-0.025-1.108-0.072-1.694l3.731-1.21l0.286-0.094l-0.038-0.298c-0.339-2.658-1.091-5.237-2.234-7.667l-0.138-0.29
			l-0.303,0.1l-3.667,1.191c-0.83-1.599-1.852-3.08-3.04-4.417l2.289-3.154l0.18-0.247l-0.213-0.219
			c-1.876-1.919-4.026-3.527-6.393-4.779l-0.278-0.146l-0.185,0.254l-2.276,3.129c-1.652-0.786-3.405-1.358-5.218-1.703v-3.875
			V11.75l-0.309-0.045c-1.242-0.182-2.506-0.274-3.76-0.274c-1.404,0-2.825,0.116-4.22,0.346l-0.305,0.05v0.308v3.893
			c-1.76,0.375-3.472,0.974-5.098,1.782L25.3,14.69l-0.188-0.258l-0.28,0.153c-2.35,1.288-4.477,2.928-6.324,4.874l-0.208,0.22
			l0.177,0.244l2.306,3.171c-1.122,1.303-2.082,2.731-2.86,4.254l-3.661-1.19l-0.305-0.098l-0.135,0.292
			c-1.129,2.433-1.866,5.017-2.192,7.68l-0.036,0.297l0.284,0.092l3.737,1.215c-0.04,0.552-0.06,1.062-0.06,1.548
			c0,1.064,0.085,2.146,0.248,3.227l-3.667,1.189l-0.304,0.098l0.059,0.317c0.501,2.635,1.407,5.163,2.695,7.515l0.145,0.265
			l0.285-0.093l3.73-1.214c0.781,1.272,1.699,2.468,2.734,3.562l-2.275,3.13l-0.185,0.256l0.227,0.218
			c1.925,1.871,4.117,3.424,6.513,4.612l0.276,0.137l0.18-0.248l2.292-3.156c1.34,0.588,2.735,1.037,4.156,1.341v3.891v0.311
			l0.305,0.051c1.393,0.229,2.812,0.345,4.22,0.345c1.253,0,2.517-0.092,3.76-0.272l0.309-0.047v-0.312v-3.875
			c1.466-0.279,2.898-0.711,4.266-1.279l2.303,3.168l0.178,0.246l0.272-0.132c2.415-1.153,4.63-2.671,6.583-4.515l0.232-0.219
			l-0.188-0.259l-2.265-3.117c1.107-1.128,2.088-2.373,2.918-3.708l3.736,1.214l0.286,0.093l0.145-0.262
			c1.3-2.347,2.223-4.871,2.736-7.503l0.062-0.315l-0.304-0.101L58.555,40.549L58.555,40.549z M59.229,49.042l-3.715-1.207
			l-0.273-0.09l-0.148,0.247c-0.887,1.465-1.958,2.822-3.181,4.036l-0.223,0.22l0.184,0.25l2.254,3.104
			c-1.767,1.625-3.746,2.982-5.894,4.039l-2.29-3.15l-0.172-0.238l-0.266,0.115c-1.488,0.647-3.059,1.118-4.67,1.401l-0.301,0.052
			v0.305v3.856c-1.106,0.147-2.229,0.227-3.343,0.227c-1.267,0-2.542-0.101-3.799-0.294v-3.871v-0.298l-0.292-0.058
			c-1.563-0.311-3.098-0.806-4.561-1.473l-0.27-0.122l-0.175,0.24l-2.28,3.14c-2.13-1.09-4.088-2.477-5.831-4.127l2.263-3.113
			l0.18-0.249l-0.213-0.219c-1.15-1.182-2.156-2.493-2.993-3.896l-0.148-0.249l-0.277,0.088l-3.71,1.206
			c-1.126-2.115-1.937-4.374-2.414-6.726l3.647-1.184l0.297-0.097l-0.051-0.308c-0.187-1.142-0.284-2.291-0.284-3.418
			c0-0.549,0.027-1.13,0.082-1.775l0.024-0.286l-0.275-0.09l-3.717-1.208c0.319-2.376,0.976-4.685,1.958-6.872l3.64,1.182
			l0.301,0.097l0.138-0.282c0.818-1.657,1.855-3.204,3.086-4.597l0.193-0.218l-0.171-0.235l-2.291-3.154
			c1.671-1.72,3.572-3.186,5.657-4.363l2.256,3.103l0.182,0.253l0.278-0.144c1.737-0.896,3.581-1.542,5.478-1.917l0.292-0.057
			v-0.298v-3.873c1.259-0.191,2.535-0.292,3.799-0.292c1.114,0,2.237,0.079,3.343,0.226v3.857v0.304l0.301,0.054
			c1.953,0.343,3.836,0.959,5.6,1.83l0.275,0.136l0.18-0.248l2.263-3.114c2.101,1.146,4.021,2.583,5.719,4.277l-2.277,3.136
			l-0.174,0.24l0.2,0.22c1.3,1.419,2.399,3.018,3.27,4.751l0.14,0.279l0.297-0.096l3.646-1.186c0.996,2.185,1.667,4.489,1.998,6.86
			l-3.711,1.206l-0.276,0.089l0.026,0.29c0.062,0.67,0.091,1.297,0.091,1.917c0,1.171-0.103,2.367-0.307,3.556l-0.052,0.31
			l0.297,0.098l3.645,1.183C61.189,44.676,60.365,46.93,59.229,49.042L59.229,49.042z"/>
		<path fill-rule="evenodd" clip-rule="evenodd" fill="#FFFFFF" d="M42.213,23.483c-0.593,0.134-1.066-0.09-1.25-0.33
			c-0.184-0.239,0.055-0.975,0.257-0.938c0.202,0.037,0.019,0.166-0.037,0.496c-0.054,0.331,0.148,0.423,0.148,0.423
			c1.892-1.432,0.421-1.875,0.421-1.875c0.514-0.605,0.221-1.506,0.221-1.506c-1.176,0.386-1.195,1.323-1.195,1.323
			c-0.276-0.44-1.029-0.165-1.212,0.258c-0.185,0.422-0.147,1.599-0.147,1.599c0.752,0.165,0.587-0.827,0.863-0.863
			c0.275-0.037,0.44,0.919-0.845,1.157c-1.288,0.238-1.618-0.496-1.764-0.901c-0.148-0.404,0.331-0.754,0.439-0.202
			c0.111,0.552,0.552,0.753,0.552,0.753c-0.166-0.403,0.497-1.028,0.442-1.727c-0.056-0.698-1.25-0.33-1.25-0.33
			c0.153-0.346,0.094-0.702-0.037-1.013c-0.078-0.184-0.179-0.352-0.278-0.493v-0.672h0.54v-0.708h-0.54v-0.414h-0.707v0.414h-0.54
			v0.708h0.54v0.698c-0.092,0.136-0.187,0.293-0.262,0.466c-0.13,0.311-0.186,0.667-0.036,1.013c0,0-1.195-0.368-1.25,0.33
			c-0.053,0.698,0.607,1.324,0.443,1.727c0,0,0.44-0.201,0.551-0.753s0.587-0.202,0.44,0.202c-0.148,0.405-0.479,1.139-1.764,0.901
			c-1.286-0.238-1.119-1.194-0.845-1.157c0.275,0.036,0.11,1.028,0.865,0.863c0,0,0.036-1.177-0.149-1.599
			c-0.182-0.422-0.937-0.698-1.212-0.258c0,0-0.017-0.937-1.194-1.323c0,0-0.293,0.901,0.22,1.506c0,0-1.469,0.442,0.424,1.875
			c0,0,0.201-0.092,0.146-0.423c-0.055-0.33-0.238-0.458-0.036-0.496c0.201-0.037,0.439,0.699,0.257,0.938
			c-0.184,0.239-0.656,0.464-1.25,0.33c-1.309-0.293-0.335-2.37-2.058-2.571c0,0,0.917,2.218,2.017,3.546h10.114
			c1.1-1.328,2.016-3.546,2.016-3.546C42.549,21.113,43.521,23.19,42.213,23.483L42.213,23.483z"/>
		<path fill-rule="evenodd" clip-rule="evenodd" fill="#FFFFFF" d="M40.91,30.308c-0.203-0.024-0.534-0.12-0.626-0.265
			c0.072-0.158,0.178-0.464,0.178-0.82c0-0.196-0.033-0.404-0.129-0.602c-0.075-0.212-0.222-0.366-0.426-0.45
			c-0.15-0.084-0.314-0.127-0.487-0.127c-0.56,0-1.016,0.458-1.016,1.015c0,0.375,0.212,0.711,0.54,0.888
			c-0.002,0.006-0.002,0.006-0.003,0.01c-0.083,0.006-0.367,0.03-0.367,0.03l-0.018,0.057c-0.002,0.008-0.014,0.047-0.014,0.1
			c0,0.052,0.011,0.11,0.046,0.17c0.02,0.033,0.058,0.064,0.109,0.092c-0.018,0.024-0.02,0.033-0.03,0.05
			c-0.072,0-0.405,0.019-0.405,0.019l-0.006,0.077c0,0.008,0,0.016,0,0.028c0,0.082,0.025,0.192,0.103,0.268
			c-0.011,0.018-0.018,0.023-0.027,0.034c-0.064,0-0.292,0-0.295,0c-0.001-0.001-0.14-0.027-0.204-0.037
			c-0.039-0.046-0.285-0.344-0.312-0.376c-0.067-0.258-0.094-0.459-0.094-0.6c0-0.305,0.104-0.386,0.104-0.388
			c0.26-0.101,0.322-0.197,0.332-0.256c0.038-0.078,0.064-0.159,0.064-0.234c0-0.062-0.017-0.126-0.044-0.187
			c-0.025-0.054-0.058-0.103-0.1-0.146v-0.002c-0.154-0.16-0.379-0.256-0.534-0.257c-0.064,0-0.146,0.012-0.167,0.083
			c-0.013,0.039-0.049,0.065-0.093,0.06c-0.041-0.002-0.076-0.035-0.08-0.078c-0.002-0.008-0.021-0.145-0.138-0.286
			c-0.018-0.012-0.032-0.031-0.051-0.04c-0.202-0.107-0.476-0.083-0.681,0.056c-0.218,0.15-0.32,0.407-0.286,0.705l0.021,0.179
			l0.13-0.129c0.167-0.169,0.567,0.132,0.729,0.276c-0.007,0.077-0.051,0.861-0.051,0.919c-0.257,0.259-0.532,0.604-0.61,0.702
			c-0.049,0.007-0.218,0.039-0.218,0.039s-0.215-0.001-0.279-0.001c-0.013-0.011-0.016-0.017-0.028-0.034
			c0.079-0.075,0.103-0.186,0.103-0.268c0-0.012,0-0.02,0-0.028l-0.007-0.077c0,0-0.331-0.019-0.401-0.019
			c-0.011-0.017-0.018-0.026-0.031-0.05c0.051-0.028,0.089-0.059,0.109-0.092c0.034-0.06,0.044-0.118,0.044-0.17
			c0-0.053-0.01-0.092-0.013-0.1l-0.015-0.057c0,0-0.286-0.024-0.371-0.03c-0.001-0.004-0.001-0.004-0.003-0.01
			c0.329-0.177,0.542-0.513,0.542-0.888c0-0.558-0.455-1.015-1.019-1.015c-0.17,0-0.337,0.042-0.493,0.132
			c-0.199,0.08-0.342,0.233-0.427,0.457c-0.088,0.191-0.122,0.397-0.122,0.59c0,0.354,0.106,0.663,0.18,0.821
			c-0.093,0.146-0.426,0.241-0.628,0.265l-0.099,0.012l0.023,0.1c0.094,0.38,0.406,0.52,0.902,0.402
			c0.078-0.021,0.155-0.065,0.226-0.125c0.041,0.056,0.071,0.1,0.092,0.126c-0.006,0.061-0.082,0.841-0.082,0.841
			c-0.026,0.184-0.455,0.295-0.66,0.322L33.2,32.001l0.022,0.095c0.096,0.384,0.411,0.523,0.902,0.406
			c0.276-0.067,0.48-0.352,0.616-0.826c0.011,0.017,0.018,0.023,0.026,0.032c-0.015,0.174-0.09,1.14-0.13,1.415
			c-0.025,0.184-0.457,0.299-0.659,0.325l-0.1,0.012l0.023,0.098c0.097,0.379,0.405,0.521,0.902,0.402
			c0.554-0.131,0.707-1.098,0.748-1.482c0,0.091,0,1.165,0,1.165s0.096,0.014,0.112,0.016c0,0.01-0.001,0.017-0.001,0.028
			c0,0.02,0.001,0.042,0.004,0.062c-0.15,0.322-0.326,0.718-0.407,0.895c-0.533-0.083-1.002,0.195-1.023,0.209l0.2,0.332
			c0.004-0.002,0.165-0.096,0.385-0.144c-0.128,0.124-0.242,0.269-0.284,0.422l0.373,0.103c0.046-0.164,0.354-0.413,0.562-0.53
			c0.016-0.014,0.034-0.026,0.047-0.043c0.103-0.028,0.416-0.039,0.71-0.028l0.018-0.39c-0.225-0.009-0.396-0.004-0.529,0.001
			l0.322-0.712c0.003-0.005,0.013-0.008,0.018-0.01c0.042,0.024,0.133,0.078,0.133,0.078s0.215-0.078,0.295-0.109
			c0.024,0.053,0.065,0.173,0.065,0.458c0,0.132-0.011,0.297-0.031,0.504c-0.026,0.241-0.117,0.42-0.272,0.537
			c-0.315,0.222-0.79,0.12-0.796,0.119l-0.17-0.033l0.07,0.157c0.141,0.329,0.341,0.523,0.582,0.571
			c0.229,0.044,0.44-0.044,0.587-0.137c-0.003,0.047-0.011,0.094-0.011,0.138c0,0.467,0.308,0.82,0.325,0.838l0.064,0.074
			l0.063-0.073c0.021-0.018,0.335-0.375,0.335-0.843c0-0.042-0.006-0.089-0.014-0.133c0.149,0.093,0.362,0.182,0.589,0.137
			c0.244-0.048,0.438-0.243,0.584-0.571l0.066-0.157l-0.168,0.033c-0.004,0.001-0.48,0.104-0.792-0.119
			c-0.157-0.117-0.253-0.296-0.276-0.537c-0.021-0.208-0.031-0.373-0.031-0.504c0-0.285,0.04-0.405,0.062-0.458
			c0.083,0.031,0.3,0.109,0.3,0.109s0.051-0.03,0.093-0.056l0.339,0.7c-0.131-0.004-0.3-0.009-0.517,0l0.016,0.39
			c0.309-0.012,0.64,0.002,0.726,0.031c0.009,0.015,0.02,0.03,0.032,0.041c0.206,0.118,0.518,0.367,0.562,0.53l0.378-0.103
			c-0.044-0.153-0.16-0.298-0.287-0.422c0.217,0.048,0.377,0.142,0.382,0.144l0.201-0.332c-0.022-0.017-0.494-0.295-1.029-0.208
			c-0.077-0.16-0.245-0.505-0.393-0.812c0.018-0.045,0.023-0.095,0.023-0.146c0-0.011,0-0.018,0-0.028
			c0.013-0.002,0.11-0.016,0.11-0.016s0-1.074,0-1.165c0.042,0.384,0.194,1.351,0.75,1.482c0.49,0.12,0.801-0.022,0.9-0.402
			l0.025-0.098l-0.102-0.012c-0.204-0.026-0.632-0.141-0.66-0.325c-0.038-0.275-0.114-1.241-0.13-1.415
			c0.007-0.009,0.019-0.016,0.027-0.032c0.136,0.474,0.34,0.759,0.612,0.826c0.496,0.117,0.809-0.022,0.905-0.406l0.026-0.095
			l-0.101-0.014c-0.205-0.027-0.633-0.138-0.662-0.322c0,0-0.065-0.686-0.081-0.841c0.019-0.026,0.054-0.07,0.094-0.126
			c0.071,0.06,0.145,0.104,0.226,0.125c0.495,0.117,0.804-0.022,0.901-0.402l0.025-0.1L40.91,30.308L40.91,30.308z M38.252,34.97
			L38.252,34.97C38.252,34.97,38.252,34.97,38.252,34.97L38.252,34.97L38.252,34.97z M37.976,28.607l0.111,0.063l0.197-0.337
			l-0.233-0.136l0.138-0.232l-0.334-0.194L37.718,28l-0.233-0.137l-0.198,0.336l0.045,0.028
			C37.562,28.259,37.821,28.398,37.976,28.607L37.976,28.607z"/>
		<path fill-rule="evenodd" clip-rule="evenodd" fill="#FFFFFF" d="M30.822,35.166c0.155,0.513,0.336,1.124,0.353,1.174
			c0.038,0.042,0.501,0.579,0.756,0.874l0.209-0.044l0.073-0.916C32.094,36.161,31.316,35.553,30.822,35.166L30.822,35.166z
			 M30.269,36.083c0-0.038-0.029-0.067-0.066-0.067c-0.034,0-0.062,0.029-0.062,0.067c0,0.031,0.028,0.06,0.062,0.06
			C30.24,36.144,30.269,36.115,30.269,36.083L30.269,36.083z M28.033,33.977l-1.555-1.254l-0.702-0.106l0.297,0.674l1.518,1.27
			L28.033,33.977L28.033,33.977z M28.944,36.321c0,0,0.676-0.382,0.762-0.432c0.038-0.064,0.142-0.25,0.173-0.306
			c0-0.044,0.002-0.113,0.007-0.211c-0.149-0.039-0.326-0.081-0.461-0.117c-0.11,0.18-0.507,0.829-0.507,0.829l-1.03,0.216
			l-0.08-0.383c0,0,0.229-0.046,0.456-0.094l-0.007-0.005l0.361-0.417l-1.011-0.832l-0.764,1.007l0.862,1.618
			C28.09,36.919,28.929,36.327,28.944,36.321L28.944,36.321z M30.341,34.922l0.292-0.4l1.407,1.101l-0.582-1.492l-1.08-0.266
			c0.772-0.346,1.313-1.118,1.313-2.02c0-1.222-0.99-2.211-2.212-2.211c-1.219,0-2.212,0.989-2.212,2.211
			c0,0.902,0.542,1.674,1.316,2.02l-0.402-0.058l-0.131,0.176l1.066,0.839l0.34-0.395l0.295,0.25l-0.181,0.212l0.715,0.182
			l-0.021,0.564c0.222,0.031,0.396,0.218,0.396,0.448c0,0.245-0.204,0.452-0.456,0.452c-0.174,0-0.324-0.104-0.401-0.253
			c-0.227,0.127-0.652,0.367-0.652,0.367c-0.002,0-1.216,0.855-1.394,0.982l-0.048,0.667l-0.276,3.479h4.161l0.094-3.128
			l0.028-1.093l-0.887-1.025L30.341,34.922L30.341,34.922z M29.893,32.119c0.128-0.215,0.245-0.489,0.245-0.575
			c0-0.292-0.259-0.525-0.58-0.525c-0.322,0-0.584,0.234-0.584,0.525h-0.705c0-0.679,0.576-1.23,1.289-1.23
			c0.711,0,1.29,0.551,1.29,1.23c0,0.33-0.266,0.803-0.347,0.938L29.893,32.119L29.893,32.119z"/>
		<path fill-rule="evenodd" clip-rule="evenodd" fill="#FFFFFF" d="M43.313,36.463c0.003,0.196,0.008,0.443,0.009,0.637
			c0.193-0.002,0.439-0.004,0.637-0.008c-0.002-0.193-0.005-0.44-0.005-0.635C43.753,36.46,43.511,36.46,43.313,36.463
			L43.313,36.463z M46.579,34.488l0.381,0.369l0.817-0.828l-0.379-0.371l-0.41-0.023l0.221-0.233l-0.298-0.294L45.9,34.207
			l-0.112-0.107c-0.152-0.059-0.774-0.307-0.837-0.333c-0.075,0.002-1.143,0.04-1.183,0.042c-0.036,0.011-0.701,0.193-0.891,0.245
			c-0.027,0.215-0.051,0.441-0.051,0.446l-0.412,2.768l0.003,0.671l0.042,3.89h4.188l-0.341-3.976l-0.072-1.001l-1.112-0.104
			l-0.78-0.29l0.012,1.024l-1.417,0.009l-0.012-1.412l1.034-0.012l-0.229-0.461l0.631-0.399l0.099-0.061c0,0,0.156,0.081,0.342,0.18
			l1.101-1.118l0.275,0.274l-1.01,1.027c0.117,0.06,0.218,0.111,0.261,0.133c0.098-0.053,0.261-0.143,0.261-0.143l0.186,0.343
			l-0.441,0.242c0,0-0.797-0.41-0.957-0.491c-0.076,0.049-0.14,0.091-0.244,0.155c0.064,0.129,0.121,0.239,0.154,0.312
			c0.121,0.042,0.784,0.289,0.824,0.301c0.029,0.005,0.612,0.062,1.073,0.104l0.59-0.048l-0.433-1.686l-0.261-0.252l0.374-0.387
			L46.579,34.488L46.579,34.488z M42.898,33.55c0.009,0.015,0.011,0.036,0.011,0.055c0.014,0.009,0.026,0.016,0.038,0.026
			l0.76-0.208l1.271-0.046l0.04-0.004l0.56,0.225c0.532-0.401,0.877-1.034,0.877-1.752c0-1.222-0.991-2.211-2.21-2.211
			c-1.225,0-2.212,0.989-2.212,2.211c0,0.059,0.006,0.114,0.008,0.171L42.898,33.55L42.898,33.55z M44.358,30.314
			c0.711,0,1.29,0.551,1.29,1.23c0,0.33-0.265,0.803-0.347,0.938l-0.607-0.364c0.128-0.215,0.246-0.489,0.246-0.575
			c0-0.292-0.26-0.525-0.582-0.525c-0.319,0-0.581,0.234-0.581,0.525h-0.708C43.069,30.865,43.647,30.314,44.358,30.314
			L44.358,30.314z M42.515,33.798l-0.034-0.202c-0.13-0.231-0.487-0.865-0.732-1.31v2.01l-0.484,1.235l0.052,1.136l0.784,0.081
			c0.121-0.816,0.338-2.304,0.338-2.298C42.438,34.449,42.489,34.015,42.515,33.798L42.515,33.798z"/>
		<path fill-rule="evenodd" clip-rule="evenodd" fill="#FFFFFF" d="M36.717,48.083v0.271h-0.271v0.387h0.271v0.271h0.387v-0.271
			h0.27v-0.387h-0.27v-0.271H36.717L36.717,48.083z M38.821,48.767l-0.263,0.007l0.206-0.247l-0.302-0.249l-1.558,1.885
			l-1.561-1.885l-0.299,0.249l0.207,0.247l-0.3-0.007l-0.024,0.021l-0.384,0.313l0.742,0.897l0.411-0.334l0.046-0.295l0.909,1.096
			l-0.794,0.959l-1.402,0.137l0.161,1.667l1.672-0.157l-0.136-1.396l0.752-0.907l0.75,0.907l-0.136,1.396l1.673,0.157l0.16-1.667
			l-1.403-0.137l-0.793-0.958l0.909-1.098l0.047,0.296l0.406,0.334l0.748-0.897l-0.409-0.334H38.821L38.821,48.767z M35.775,51.824
			c0.024,0.229,0.066,0.667,0.085,0.896c-0.229,0.021-0.665,0.065-0.894,0.086c-0.022-0.232-0.062-0.667-0.086-0.896
			C35.111,51.887,35.546,51.844,35.775,51.824L35.775,51.824z M38.033,51.824c0.226,0.021,0.663,0.063,0.896,0.085
			c-0.024,0.229-0.067,0.664-0.09,0.896c-0.227-0.021-0.667-0.064-0.896-0.086C37.965,52.491,38.01,52.052,38.033,51.824
			L38.033,51.824z"/>
		<path fill-rule="evenodd" clip-rule="evenodd" fill="#FFFFFF" d="M50.101,25.165H23.91v17.222c0,6.594,6.077,12.162,13.272,12.162
			c3.346,0,6.707-1.293,9.228-3.551c2.606-2.337,4.045-5.397,4.045-8.611V25.165H50.101L50.101,25.165z M45.63,44.666
			c0,0.281,0,0.955,0,0.955h-1.989c0,0,0-0.674,0-0.955c-0.345,0-0.757,0-1.1,0c0,0.281,0,0.955,0,0.955h-1.994c0,0,0-0.674,0-0.955
			c-0.346,0-0.752,0-1.103,0c0,0.281,0,0.955,0,0.955h-1.988c0,0,0-0.674,0-0.955c-0.347,0-0.758,0-1.105,0c0,0.281,0,0.955,0,0.955
			h-1.992c0,0,0-0.674,0-0.955c-0.347,0-0.754,0-1.103,0c0,0.281,0,0.955,0,0.955h-1.989c0,0,0-0.674,0-0.955
			c-0.346,0-0.756,0-1.102,0c0,0.281,0,0.955,0,0.955h-1.993c0,0,0-0.674,0-0.955c-0.355,0-1.099,0-1.457,0v1.174h0.558v3.494
			c-1.657-1.943-2.656-4.359-2.656-6.946c0,0,0-15.833,0-16.513c0.679,0,24.45,0,25.128,0c0,0.679,0,16.513,0,16.513
			c0,2.76-1.136,5.4-3.214,7.515v-4.062h0.557v-1.174C46.733,44.666,45.992,44.666,45.63,44.666L45.63,44.666z M31.7,52.651
			c-0.001-0.023-0.001-0.047-0.001-0.068c0-0.933,0.225-1.81,0.616-2.581c0.876-1.727,2.6-2.901,4.591-2.901
			c2.082,0,3.876,1.294,4.709,3.163c0.312,0.704,0.494,1.488,0.494,2.319c0,0.095-0.002,0.187-0.007,0.278
			c-1.564,0.639-3.244,0.981-4.919,0.981C35.232,53.842,33.367,53.41,31.7,52.651L31.7,52.651z M35.067,44.914
			c0.232,0,0.345,0,0.577,0c0-0.284,0-0.954,0-0.954h2.518c0,0,0,0.67,0,0.954c0.231,0,0.347,0,0.578,0c0-0.284,0-0.954,0-0.954
			h0.831v-3.735l0.757-0.973v-1.594h-1.104v0.954h-0.808v-0.954h-1.105v0.954h-0.803v-0.954h-1.104v0.954h-0.806v-0.954h-1.105
			v1.594l0.757,0.973v3.735h0.817C35.067,43.959,35.067,44.629,35.067,44.914L35.067,44.914z M44.349,44.914
			c0.229,0,0.345,0,0.576,0c0-0.284,0-0.954,0-0.954h0.354h1.254v-1.572h-4.188v1.572h2.005
			C44.349,43.959,44.349,44.629,44.349,44.914L44.349,44.914z M28.881,44.914c0.231,0,0.345,0,0.574,0c0-0.284,0-0.954,0-0.954
			h2.006v-1.572h-4.187v1.572h1.607C28.881,43.959,28.881,44.629,28.881,44.914L28.881,44.914z"/>
		<path fill-rule="evenodd" clip-rule="evenodd" fill="#FFFFFF" d="M1.928,37.184c0-19.44,15.816-35.256,35.255-35.256
			c19.439,0,35.255,15.816,35.255,35.256c0,19.439-15.816,35.253-35.255,35.253C17.744,72.437,1.928,56.623,1.928,37.184
			L1.928,37.184z M1.225,37.184c0,19.827,16.131,35.956,35.958,35.956c19.828,0,35.958-16.129,35.958-35.956
			c0-19.828-16.13-35.958-35.958-35.958C17.355,1.225,1.225,17.356,1.225,37.184L1.225,37.184z"/>
	</g>
	<rect x="89.062" y="14.625" fill="#00628B" width="364.482" height="1.176"/>
	<rect x="89.062" y="58.236" fill="#00628B" width="364.482" height="1.176"/>
	<g>
		<path fill="#00628B" d="M99.206,34.822c0,0.934-0.262,1.672-0.785,2.217c-0.523,0.545-1.231,0.817-2.122,0.817h-3.353v4.414h1.379
			v2.059h-4.987V42.27h1.252V31.66h-1.252v-2.059h7.321c0.778,0,1.397,0.241,1.857,0.722c0.459,0.481,0.689,1.132,0.689,1.952
			V34.822z M96.85,34.694v-1.846c0-0.792-0.297-1.188-0.892-1.188h-3.013v4.244h3.013C96.553,35.904,96.85,35.501,96.85,34.694z"/>
		<path fill="#00628B" d="M111.025,41.655c0,0.82-0.233,1.471-0.7,1.952s-1.09,0.722-1.867,0.722h-4.181
			c-0.778,0-1.397-0.24-1.857-0.722c-0.46-0.481-0.689-1.132-0.689-1.952v-9.38c0-0.82,0.229-1.471,0.689-1.952
			c0.459-0.48,1.079-0.722,1.857-0.722h4.181c0.777,0,1.4,0.241,1.867,0.722c0.467,0.481,0.7,1.132,0.7,1.952V41.655z M108.67,41.06
			v-8.212c0-0.792-0.292-1.188-0.874-1.188h-2.814c-0.597,0-0.896,0.396-0.896,1.188v8.212c0,0.807,0.298,1.21,0.896,1.21h2.814
			C108.378,42.27,108.67,41.867,108.67,41.06z"/>
		<path fill="#00628B" d="M123.312,44.329h-9.889v-1.91l6.875-10.759h-4.562v2.483h-2.313v-4.542h9.634v1.868l-6.833,10.801h4.796
			v-2.525h2.292V44.329z"/>
		<path fill="#00628B" d="M137.997,31.66h-1.273v12.669h-2.244l-5.778-10.95c0.127,0.862,0.191,1.62,0.191,2.27v8.68h-3.438V42.27
			h1.273V31.66h-1.273v-2.059h3.713l5.58,10.929c-0.126-0.877-0.189-1.627-0.189-2.249v-8.68h3.438V31.66z"/>
		<path fill="#00628B" d="M152.108,44.329h-3.205l-1.146-4.647h-4.032l-1.104,4.647h-2.886V42.27h1.125l3.353-12.669h3.396
			l3.353,12.669h1.146V44.329z M147.291,37.729l-1.507-6.43l-1.57,6.43H147.291z"/>
		<path fill="#00628B" d="M166.432,31.66h-1.273v12.669h-2.244l-5.778-10.95c0.127,0.862,0.191,1.62,0.191,2.27v8.68h-3.438V42.27
			h1.273V31.66h-1.273v-2.059h3.713l5.58,10.929c-0.126-0.877-0.189-1.627-0.189-2.249v-8.68h3.438V31.66z"/>
		<path fill="#00628B" d="M186.357,31.66h-1.294v9.528c0,0.962-0.272,1.726-0.816,2.291c-0.543,0.566-1.267,0.85-2.169,0.85h-3.261
			c-0.903,0-1.627-0.283-2.17-0.85c-0.544-0.565-0.815-1.329-0.815-2.291V31.66h-1.273v-2.059h3.628V41.06
			c0,0.807,0.29,1.21,0.87,1.21h2.95c0.594,0,0.891-0.403,0.891-1.21V29.601h3.459V31.66z"/>
		<path fill="#00628B" d="M200.873,31.66h-1.273v12.669h-2.243l-5.778-10.95c0.127,0.862,0.191,1.62,0.191,2.27v8.68h-3.438V42.27
			h1.273V31.66h-1.273v-2.059h3.713l5.58,10.929c-0.126-0.877-0.189-1.627-0.189-2.249v-8.68h3.438V31.66z"/>
		<path fill="#00628B" d="M207.705,44.329h-4.859V42.27h1.252V31.66h-1.252v-2.059h4.859v2.059h-1.252v10.61h1.252V44.329z"/>
		<path fill="#00628B" d="M221.625,31.66h-1.252l-3.395,12.669h-2.865l-3.374-12.669h-1.252v-2.059h3.141l2.928,11.799l2.907-11.799
			h3.162V31.66z"/>
		<path fill="#00628B" d="M233.658,44.329h-10.229V42.27h1.252V31.66h-1.252v-2.059h10.037v4.562h-2.059V31.66h-4.371v4.074h4.689
			v1.974h-4.689v4.562h4.52v-2.632h2.102V44.329z"/>
		<path fill="#00628B" d="M247.047,44.329h-3.607v-5.263c0-0.807-0.29-1.21-0.87-1.21h-3.077v6.473h-3.607V42.27h1.252V31.66h-1.252
			v-2.059h7.321c0.777,0,1.396,0.241,1.856,0.722c0.46,0.481,0.69,1.132,0.69,1.952v2.377c0,1.174-0.658,1.853-1.975,2.037
			c0.75,0.184,1.274,0.484,1.57,0.902c0.298,0.417,0.446,1.037,0.446,1.857v2.822h1.252V44.329z M243.398,34.694v-1.846
			c0-0.792-0.297-1.188-0.892-1.188h-3.014v4.244h3.014C243.101,35.904,243.398,35.501,243.398,34.694z"/>
		<path fill="#00628B" d="M257.934,41.655c0,0.82-0.23,1.471-0.69,1.952s-1.079,0.722-1.857,0.722h-6.429V40h2.397v2.271h3.332
			c0.594,0,0.892-0.403,0.892-1.21v-1.889c0-0.806-0.298-1.209-0.892-1.209h-3.035c-0.778,0-1.396-0.24-1.856-0.722
			c-0.46-0.48-0.689-1.131-0.689-1.952v-3.013c0-0.82,0.229-1.471,0.689-1.952c0.46-0.48,1.078-0.722,1.856-0.722h6.049v3.947
			h-2.314V31.66h-3.033c-0.595,0-0.892,0.396-0.892,1.188v1.719c0,0.807,0.297,1.209,0.892,1.209h3.033
			c0.778,0,1.397,0.241,1.857,0.722s0.69,1.132,0.69,1.952V41.655z"/>
		<path fill="#00628B" d="M265.106,44.329h-4.859V42.27h1.252V31.66h-1.252v-2.059h4.859v2.059h-1.252v10.61h1.252V44.329z"/>
		<path fill="#00628B" d="M278.496,33.739h-2.164v-2.08h-2.334v10.61h1.379v2.059h-5.114V42.27h1.38V31.66h-2.355v2.08h-2.165
			v-4.138h11.374V33.739z"/>
		<path fill="#00628B" d="M291.823,31.66h-1.252l-3.268,6.026v4.584h1.315v2.059h-5.008V42.27h1.336v-4.478l-3.311-6.132h-1.251
			v-2.059h2.949l2.886,6.027l2.865-6.027h2.737V31.66z"/>
		<path fill="#00628B" d="M309.5,41.655c0,0.82-0.233,1.471-0.7,1.952s-1.09,0.722-1.868,0.722h-4.18
			c-0.779,0-1.397-0.24-1.857-0.722s-0.689-1.132-0.689-1.952v-9.38c0-0.82,0.229-1.471,0.689-1.952
			c0.46-0.48,1.078-0.722,1.857-0.722h4.18c0.778,0,1.401,0.241,1.868,0.722c0.467,0.481,0.7,1.132,0.7,1.952V41.655z
			 M307.144,41.06v-8.212c0-0.792-0.292-1.188-0.875-1.188h-2.813c-0.598,0-0.896,0.396-0.896,1.188v8.212
			c0,0.807,0.298,1.21,0.896,1.21h2.813C306.852,42.27,307.144,41.867,307.144,41.06z"/>
		<path fill="#00628B" d="M321.531,34.164h-2.228V31.66h-3.884v4.074h4.859v2.058h-4.859v4.478h1.4v2.059h-5.008V42.27h1.252V31.66
			h-1.252v-2.059h9.719V34.164z"/>
		<path fill="#00628B" d="M341.075,33.739h-2.164v-2.08h-2.334v10.61h1.379v2.059h-5.114V42.27h1.38V31.66h-2.355v2.08h-2.165
			v-4.138h11.374V33.739z"/>
		<path fill="#00628B" d="M353.341,44.329h-10.229V42.27h1.251V31.66h-1.251v-2.059h10.037v4.562h-2.059V31.66h-4.371v4.074h4.689
			v1.974h-4.689v4.562h4.52v-2.632h2.102V44.329z"/>
		<path fill="#00628B" d="M364.841,44.329h-6.408c-0.778,0-1.396-0.24-1.856-0.722s-0.689-1.132-0.689-1.952v-9.38
			c0-0.82,0.229-1.471,0.689-1.952c0.46-0.48,1.078-0.722,1.856-0.722h6.408v4.626h-2.079V31.66h-3.629
			c-0.594,0-0.891,0.396-0.891,1.188v8.212c0,0.807,0.297,1.21,0.891,1.21h3.629v-2.61h2.079V44.329z"/>
		<path fill="#00628B" d="M378.529,44.329h-3.607v-6.431h-4.371v6.431h-3.607V42.27h1.252V31.66h-1.252v-2.059h3.607v6.43h4.371
			v-6.43h3.607v2.059h-1.252v10.61h1.252V44.329z"/>
		<path fill="#00628B" d="M393.065,31.66h-1.272v12.669h-2.244l-5.778-10.95c0.128,0.862,0.191,1.62,0.191,2.27v8.68h-3.438V42.27
			h1.273V31.66h-1.273v-2.059h3.713l5.579,10.929c-0.126-0.877-0.188-1.627-0.188-2.249v-8.68h3.438V31.66z"/>
		<path fill="#00628B" d="M404.651,41.655c0,0.82-0.233,1.471-0.699,1.952c-0.468,0.481-1.09,0.722-1.868,0.722h-4.181
			c-0.777,0-1.397-0.24-1.856-0.722c-0.46-0.481-0.689-1.132-0.689-1.952v-9.38c0-0.82,0.229-1.471,0.689-1.952
			c0.459-0.48,1.079-0.722,1.856-0.722h4.181c0.778,0,1.4,0.241,1.868,0.722c0.466,0.481,0.699,1.132,0.699,1.952V41.655z
			 M402.295,41.06v-8.212c0-0.792-0.291-1.188-0.873-1.188h-2.814c-0.597,0-0.896,0.396-0.896,1.188v8.212
			c0,0.807,0.299,1.21,0.896,1.21h2.814C402.004,42.27,402.295,41.867,402.295,41.06z"/>
		<path fill="#00628B" d="M416.598,44.329h-9.634V42.27h1.252V31.66h-1.252v-2.059h4.966v2.059h-1.358v10.61h3.904v-2.949h2.122
			V44.329z"/>
		<path fill="#00628B" d="M428.1,41.655c0,0.82-0.233,1.471-0.7,1.952s-1.09,0.722-1.867,0.722h-4.181
			c-0.778,0-1.397-0.24-1.857-0.722s-0.689-1.132-0.689-1.952v-9.38c0-0.82,0.229-1.471,0.689-1.952
			c0.46-0.48,1.079-0.722,1.857-0.722h4.181c0.777,0,1.4,0.241,1.867,0.722c0.467,0.481,0.7,1.132,0.7,1.952V41.655z M425.745,41.06
			v-8.212c0-0.792-0.291-1.188-0.874-1.188h-2.814c-0.597,0-0.896,0.396-0.896,1.188v8.212c0,0.807,0.299,1.21,0.896,1.21h2.814
			C425.454,42.27,425.745,41.867,425.745,41.06z"/>
		<path fill="#00628B" d="M439.877,44.329h-6.6c-0.778,0-1.397-0.24-1.856-0.722c-0.46-0.481-0.69-1.132-0.69-1.952v-9.38
			c0-0.82,0.23-1.471,0.69-1.952c0.459-0.48,1.078-0.722,1.856-0.722h6.451v4.478h-2.122V31.66h-3.629
			c-0.595,0-0.891,0.396-0.891,1.188v8.212c0,0.807,0.296,1.21,0.891,1.21h3.629v-4.329h-2.419v-2.058h4.689V44.329z"/>
		<path fill="#00628B" d="M453.543,31.66h-1.252l-3.269,6.026v4.584h1.316v2.059h-5.009V42.27h1.338v-4.478l-3.311-6.132h-1.253
			v-2.059h2.95l2.886,6.027l2.865-6.027h2.737V31.66z"/>
	</g>
</g>
</svg>
